<svg width="120" height="120" viewBox="0 0 120 120" fill="none" xmlns="http://www.w3.org/2000/svg">
<path d="M15 20C6.73 20 0 26.73 0 35V70C0 78.27 6.73 85 15 85H51.4258L84.8633 100L80 85H105C113.27 85 120 78.27 120 70V35C120 26.73 113.27 20 105 20H15ZM51.2402 30C51.7263 29.9979 52.2118 30.0942 52.6855 30.293C54.6005 31.088 55.507 33.2755 54.707 35.1855C51.542 42.8005 50 54.6 50 71.25C50 72.845 48.9807 74.2699 47.4707 74.7949C47.0707 74.9299 46.66 75 46.25 75C45.12 75 44.0308 74.4892 43.3008 73.5742C38.6008 67.5892 34.8705 57.8666 32.4805 50.3516L23.4766 72.6562C22.8716 74.1463 21.3454 75.0802 19.7754 74.9902C18.1704 74.8902 16.802 73.7913 16.377 72.2363C16.147 71.3963 10.7398 51.4412 10.0098 33.9062C9.91977 31.8362 11.5237 30.0898 13.5938 30.0098C15.6587 29.8048 17.4052 31.5237 17.4902 33.5938C17.8502 42.2338 19.477 51.717 20.957 58.877L29.6484 37.3438C30.2584 35.8238 31.798 34.9348 33.418 35.0098C35.048 35.1348 36.4073 36.3054 36.7773 37.9004C36.8123 38.0454 39.1497 47.9806 42.9297 57.2656C43.6447 46.6306 45.253 38.4095 47.793 32.3145C48.3892 30.8745 49.782 30.0063 51.2402 30ZM68.9746 35C69.6167 34.9953 70.2622 35.0568 70.8984 35.1855C77.6084 36.5855 81.3915 45.2712 79.5215 54.9512C78.4115 60.6962 75.4845 65.6391 71.6895 68.1641C69.8645 69.3791 67.9118 70 65.9668 70C65.3418 70 64.7216 69.9395 64.1016 69.8145C57.3966 68.4145 53.6085 59.7288 55.4785 50.0488C56.5885 44.3038 59.5155 39.3609 63.3105 36.8359C65.118 35.6322 67.0483 35.0141 68.9746 35ZM98.9746 35C99.6166 34.9953 100.261 35.0568 100.898 35.1855C107.608 36.5855 111.391 45.2712 109.521 54.9512C108.411 60.6962 105.484 65.6391 101.689 68.1641C99.8645 69.3791 97.9118 70 95.9668 70C95.3418 70 94.7216 69.9395 94.1016 69.8145C87.3966 68.4145 83.6085 59.7288 85.4785 50.0488C86.5885 44.3038 89.5155 39.3609 93.3105 36.8359C95.1218 35.6322 97.0487 35.0141 98.9746 35ZM69.043 42.5C68.573 42.5 68.0507 42.6912 67.4707 43.0762C65.3757 44.4662 63.5618 47.7696 62.8418 51.4746C61.6618 57.5846 63.7145 62.0609 65.6445 62.4609C66.1745 62.5809 66.8141 62.3988 67.5391 61.9238C69.6341 60.5338 71.448 57.2304 72.168 53.5254C73.343 47.4154 71.2952 42.9391 69.3652 42.5391C69.2652 42.5141 69.153 42.5 69.043 42.5ZM99.043 42.5C98.573 42.5 98.0507 42.6912 97.4707 43.0762C95.3757 44.4662 93.5618 47.7696 92.8418 51.4746C91.6618 57.5846 93.7145 62.0609 95.6445 62.4609C96.1745 62.5809 96.8141 62.3988 97.5391 61.9238C99.6341 60.5338 101.448 57.2304 102.168 53.5254C103.343 47.4154 101.295 42.9391 99.3652 42.5391C99.2652 42.5141 99.153 42.5 99.043 42.5Z" fill="#7F54B3"/>
</svg>
