<svg width="93" height="93" viewBox="0 0 93 93" fill="none" xmlns="http://www.w3.org/2000/svg">
<g clip-path="url(#clip0_1266_1107)">
<path d="M6.53951 46.0048C6.53951 61.6267 15.6181 75.127 28.7827 81.5245L9.95645 29.9429C7.7666 34.8513 6.53951 40.2831 6.53951 46.0048ZM72.6495 44.0132C72.6495 39.1357 70.8975 35.7578 69.3948 33.1286C67.3942 29.8776 65.519 27.1245 65.519 23.8736C65.519 20.2456 68.2705 16.8684 72.1463 16.8684C72.3213 16.8684 72.4873 16.8902 72.6578 16.9C65.6361 10.4671 56.2812 6.53951 46.0063 6.53951C32.2184 6.53951 20.0879 13.6137 13.0309 24.3286C13.9569 24.3564 14.8295 24.376 15.5708 24.376C19.6989 24.376 26.0889 23.8751 26.0889 23.8751C28.2164 23.7496 28.4673 26.8745 26.342 27.126C26.342 27.126 24.204 27.3776 21.8249 27.5023L36.1971 70.2516L44.8341 44.3482L38.6851 27.5008C36.5598 27.3761 34.5464 27.1245 34.5464 27.1245C32.4197 26.9999 32.669 23.7481 34.7958 23.8736C34.7958 23.8736 41.3135 24.3745 45.1915 24.3745C49.3189 24.3745 55.7097 23.8736 55.7097 23.8736C57.8387 23.7481 58.0888 26.873 55.9628 27.1245C55.9628 27.1245 53.8203 27.3761 51.4457 27.5008L65.7082 69.9265L69.6448 56.7716C71.3511 51.3127 72.6495 47.3919 72.6495 44.0132ZM46.6987 49.4571L34.8573 83.8661C38.3929 84.9054 42.1321 85.4739 46.0063 85.4739C50.6023 85.4739 55.0098 84.6794 59.1124 83.2368C59.0065 83.0678 58.9104 82.8883 58.8315 82.6931L46.6987 49.4571ZM80.6369 27.0697C80.8066 28.3268 80.9027 29.6763 80.9027 31.128C80.9027 35.1329 80.1548 39.6351 77.9018 45.2644L65.8464 80.1195C77.5797 73.2773 85.4717 60.5655 85.4717 46.0056C85.4724 39.1439 83.7196 32.6915 80.6369 27.0697ZM46.0063 0C20.6391 0 0 20.6376 0 46.0048C0 71.3751 20.6391 92.0119 46.0063 92.0119C71.3728 92.0119 92.0149 71.3751 92.0149 46.0048C92.0142 20.6376 71.3728 0 46.0063 0ZM46.0063 89.9032C21.8024 89.9032 2.10949 70.2103 2.10949 46.0048C2.10949 21.8009 21.8016 2.10949 46.0063 2.10949C70.2096 2.10949 89.9009 21.8009 89.9009 46.0048C89.9009 70.2103 70.2096 89.9032 46.0063 89.9032Z" fill="#464342"/>
</g>
<defs>
<clipPath id="clip0_1266_1107">
<rect width="92.0149" height="92.0119" fill="white"/>
</clipPath>
</defs>
</svg>
